<svg xmlns="http://www.w3.org/2000/svg" viewBox="0 0 418.91 330.16"><defs><style>.cls-1{fill:#fff;}</style></defs><g id="Capa_2" data-name="Capa 2"><g id="Layer_1" data-name="Layer 1"><path class="cls-1" d="M396,161.77H0S95.83-7.49,211.38.26c64.71,4.33,86.19,46,86.19,46C244.29,9.19,173.25,50,212.5,93.62c-65.56-46.27,11.12-73,11.12-73-7.61-3.72-72.51,9.87-50.59,55,25.35,52.24,116.85,35.39,166,31.84-86.9,32-127.68,10.91-172.56-4.37,37.53,42.49,128.25,37.88,203.81,18L396,161.77"/><path class="cls-1" d="M39.51,239.06c0,.93,0,1.72-.08,2.34a12.72,12.72,0,0,1-.22,1.59,4.64,4.64,0,0,1-.32,1.06,3.79,3.79,0,0,1-.84,1,11.56,11.56,0,0,1-2.21,1.51,22.25,22.25,0,0,1-3.56,1.59,27.46,27.46,0,0,1-4.34,1.13,26.35,26.35,0,0,1-4.82.44A26.14,26.14,0,0,1,13.28,248a18.42,18.42,0,0,1-7.2-5.1,22.2,22.2,0,0,1-4.4-8.22A38,38,0,0,1,.2,223.58,38.6,38.6,0,0,1,2,211.1a23.88,23.88,0,0,1,5.05-8.71,20,20,0,0,1,7.65-5.12,27.16,27.16,0,0,1,9.71-1.68A24.46,24.46,0,0,1,32.53,197a20.62,20.62,0,0,1,3.23,1.45,10,10,0,0,1,2,1.4,5.58,5.58,0,0,1,.84,1A3.45,3.45,0,0,1,39,201.9a13.2,13.2,0,0,1,.21,1.59c.06.63.08,1.4.08,2.3a12.7,12.7,0,0,1-.53,4.39c-.36.85-.83,1.27-1.41,1.27a3.28,3.28,0,0,1-1.94-.76c-.68-.5-1.49-1.06-2.43-1.67a17.61,17.61,0,0,0-3.34-1.67A12.86,12.86,0,0,0,25,206.6a9.21,9.21,0,0,0-8.09,4.07q-2.79,4.07-2.8,11.94a29.83,29.83,0,0,0,.7,6.85,14.55,14.55,0,0,0,2.08,5,8.62,8.62,0,0,0,3.45,3,10.94,10.94,0,0,0,4.83,1,12.75,12.75,0,0,0,4.82-.83,19.71,19.71,0,0,0,3.53-1.86c1-.69,1.86-1.31,2.54-1.87a3,3,0,0,1,1.72-.83,1.2,1.2,0,0,1,.81.27,1.9,1.9,0,0,1,.52,1,12.64,12.64,0,0,1,.29,1.86C39.47,236.9,39.51,237.87,39.51,239.06Z"/><path class="cls-1" d="M63,182.33q0,4.09-1.68,5.66t-6.2,1.56q-4.57,0-6.17-1.51c-1.06-1-1.59-2.82-1.59-5.44S48,178,49,176.91s3.18-1.59,6.23-1.59,5.07.51,6.15,1.53S63,179.7,63,182.33Zm-1,64.39a1.49,1.49,0,0,1-.32.94,2.42,2.42,0,0,1-1.11.67,9.53,9.53,0,0,1-2.07.41c-.87.09-2,.13-3.29.13s-2.43,0-3.29-.13a9.51,9.51,0,0,1-2.08-.41,2.33,2.33,0,0,1-1.1-.67,1.44,1.44,0,0,1-.33-.94v-48a1.44,1.44,0,0,1,.33-.94,2.43,2.43,0,0,1,1.1-.7,9.17,9.17,0,0,1,2.08-.46,27,27,0,0,1,3.29-.16,27.09,27.09,0,0,1,3.29.16,9.19,9.19,0,0,1,2.07.46,2.53,2.53,0,0,1,1.11.7,1.49,1.49,0,0,1,.32.94Z"/><path class="cls-1" d="M103,242a17.56,17.56,0,0,1-.29,3.64,3.85,3.85,0,0,1-.79,1.78,4.3,4.3,0,0,1-1.42.92,13.56,13.56,0,0,1-2.22.7,25,25,0,0,1-2.75.46,29.47,29.47,0,0,1-3,.16,21.35,21.35,0,0,1-7-1,11.64,11.64,0,0,1-4.91-3.15,13.16,13.16,0,0,1-2.85-5.37,27.88,27.88,0,0,1-.92-7.65V207.78H71.05a1.7,1.7,0,0,1-1.56-1.27,11.75,11.75,0,0,1-.54-4.23,21.89,21.89,0,0,1,.13-2.64,6.3,6.3,0,0,1,.41-1.7,1.92,1.92,0,0,1,.67-.89,1.65,1.65,0,0,1,.94-.27h5.72V186.05a1.66,1.66,0,0,1,.3-1,2.16,2.16,0,0,1,1.07-.73,8.62,8.62,0,0,1,2.11-.43c.88-.09,2-.14,3.26-.14s2.44.05,3.32.14a8,8,0,0,1,2.07.43,2.35,2.35,0,0,1,1.08.73,1.55,1.55,0,0,1,.32,1v10.73h10.47a1.65,1.65,0,0,1,.94.27,2,2,0,0,1,.67.89,6.3,6.3,0,0,1,.41,1.7,21.89,21.89,0,0,1,.13,2.64,11.75,11.75,0,0,1-.54,4.23c-.36.85-.88,1.27-1.56,1.27H90.35v22.6a11.19,11.19,0,0,0,1.25,5.9c.82,1.31,2.3,2,4.42,2a8.86,8.86,0,0,0,1.94-.19,12,12,0,0,0,1.54-.43l1.13-.43a2.1,2.1,0,0,1,.83-.19,1.08,1.08,0,0,1,.62.19,1.26,1.26,0,0,1,.46.75,11.35,11.35,0,0,1,.3,1.54A18.71,18.71,0,0,1,103,242Z"/><path class="cls-1" d="M141.62,248.55l-5.82,17a3.49,3.49,0,0,1-2.64,1.94,25.21,25.21,0,0,1-6.31.59,26.13,26.13,0,0,1-3.45-.18,5.07,5.07,0,0,1-2-.62,1.44,1.44,0,0,1-.7-1.08,3.48,3.48,0,0,1,.33-1.57l6.41-16.12a3.69,3.69,0,0,1-1.26-1,4.56,4.56,0,0,1-.84-1.43L108.84,201.9a9.09,9.09,0,0,1-.71-2.88,2,2,0,0,1,.65-1.57,4.38,4.38,0,0,1,2.19-.78,31.32,31.32,0,0,1,4.07-.21c1.54,0,2.77,0,3.66.08a6.63,6.63,0,0,1,2.11.4,2.31,2.31,0,0,1,1.13,1,10.24,10.24,0,0,1,.75,1.91L134,232.05h.16l10.35-32.84a3.66,3.66,0,0,1,.84-1.86,3.53,3.53,0,0,1,1.7-.68,27.52,27.52,0,0,1,4.15-.21,29.38,29.38,0,0,1,3.86.21,4.7,4.7,0,0,1,2.26.81,2,2,0,0,1,.73,1.59,7.79,7.79,0,0,1-.43,2.35Z"/><path class="cls-1" d="M241.2,198.51A8,8,0,0,1,241,200c-.1.58-.3,1.4-.59,2.48L227.61,246a4.64,4.64,0,0,1-.7,1.48,2.76,2.76,0,0,1-1.33.89,9.61,9.61,0,0,1-2.53.44c-1.1.07-2.53.1-4.29.1s-3.2,0-4.31-.13a10.94,10.94,0,0,1-2.62-.46,2.82,2.82,0,0,1-1.37-.89,3.78,3.78,0,0,1-.65-1.43l-8.09-29.23-.11-.48-.1.48L194.06,246a4.05,4.05,0,0,1-.62,1.48,2.58,2.58,0,0,1-1.37.89,11.05,11.05,0,0,1-2.64.44c-1.12.07-2.56.1-4.32.1s-3.24,0-4.34-.13a10.84,10.84,0,0,1-2.59-.46,2.82,2.82,0,0,1-1.37-.89,3.78,3.78,0,0,1-.65-1.43l-12.73-43.52a18.53,18.53,0,0,1-.62-2.45,10.1,10.1,0,0,1-.13-1.48,1.56,1.56,0,0,1,.3-.95,2,2,0,0,1,1.07-.64,10.24,10.24,0,0,1,2.11-.36c.88-.07,2-.1,3.31-.1s2.61,0,3.51.1a8.83,8.83,0,0,1,2.1.38,1.92,1.92,0,0,1,1,.73,3.64,3.64,0,0,1,.46,1.11l9.55,35.32.11.64.1-.64,9-35.32a2.93,2.93,0,0,1,.52-1.11,2.27,2.27,0,0,1,1.05-.73,7.78,7.78,0,0,1,2-.38c.84-.07,1.93-.1,3.26-.1a31.13,31.13,0,0,1,3.23.13,9.81,9.81,0,0,1,2,.38,2,2,0,0,1,1,.65,3.29,3.29,0,0,1,.46.94l9.59,35.59.17.59.11-.64,9.16-35.32a2.69,2.69,0,0,1,.43-1.11,2.17,2.17,0,0,1,1.08-.73,8.74,8.74,0,0,1,2-.38c.86-.07,2-.1,3.29-.1s2.42,0,3.26.1a8.92,8.92,0,0,1,2,.36,1.87,1.87,0,0,1,1,.64A1.68,1.68,0,0,1,241.2,198.51Z"/><path class="cls-1" d="M289.33,246.88a1.42,1.42,0,0,1-.54,1.18,3.63,3.63,0,0,1-1.7.62,22.34,22.34,0,0,1-3.42.19,22.9,22.9,0,0,1-3.54-.19,3,3,0,0,1-1.56-.62,1.52,1.52,0,0,1-.46-1.18v-3.83a21.92,21.92,0,0,1-6.77,5,19.57,19.57,0,0,1-8.44,1.78,23.42,23.42,0,0,1-7-1,15.86,15.86,0,0,1-5.56-3,13.55,13.55,0,0,1-3.64-4.88,16.7,16.7,0,0,1-1.29-6.8,15.49,15.49,0,0,1,1.64-7.31,13.43,13.43,0,0,1,4.91-5.12,24.48,24.48,0,0,1,8.12-3,57.71,57.71,0,0,1,11.27-1H276v-2.91a15.14,15.14,0,0,0-.46-4,6.71,6.71,0,0,0-1.51-2.83,6.3,6.3,0,0,0-2.8-1.67,15,15,0,0,0-4.35-.54,22,22,0,0,0-6.06.76,34.7,34.7,0,0,0-4.72,1.67c-1.37.61-2.51,1.17-3.42,1.67a5.07,5.07,0,0,1-2.24.75,1.59,1.59,0,0,1-1-.37,2.86,2.86,0,0,1-.76-1.08,7.56,7.56,0,0,1-.46-1.73,15.6,15.6,0,0,1-.16-2.26,10.31,10.31,0,0,1,.27-2.65,4,4,0,0,1,1-1.75,10,10,0,0,1,2.64-1.72,31,31,0,0,1,4.42-1.76,40.43,40.43,0,0,1,5.53-1.32,40.59,40.59,0,0,1,15.85.6,16.36,16.36,0,0,1,6.61,3.39,13.26,13.26,0,0,1,3.77,5.91,27.62,27.62,0,0,1,1.19,8.57ZM276,226.28h-5.18a28.18,28.18,0,0,0-5.61.48,10.84,10.84,0,0,0-3.77,1.46,6.06,6.06,0,0,0-2.13,2.34,7.09,7.09,0,0,0-.68,3.16,6.08,6.08,0,0,0,1.92,4.75,7.64,7.64,0,0,0,5.31,1.72,9.86,9.86,0,0,0,5.26-1.46,22.1,22.1,0,0,0,4.88-4.25Z"/><path class="cls-1" d="M344.87,198.56c0,.18,0,.4,0,.65a7.05,7.05,0,0,1-.11.83q-.08.47-.21,1.05c-.09.4-.21.85-.35,1.35L329.71,246a4.26,4.26,0,0,1-.72,1.48,3,3,0,0,1-1.51.89,12.86,12.86,0,0,1-2.86.44c-1.21.07-2.78.1-4.72.1s-3.46,0-4.66-.13a12.87,12.87,0,0,1-2.84-.46,3.06,3.06,0,0,1-1.48-.89,4.37,4.37,0,0,1-.73-1.43l-14.45-43.52c-.21-.72-.39-1.36-.51-1.94a9.7,9.7,0,0,1-.22-1.24c0-.25,0-.48,0-.7a1.52,1.52,0,0,1,.29-.94,2.2,2.2,0,0,1,1.05-.68,8.93,8.93,0,0,1,2.08-.38c.88-.07,2-.1,3.32-.1s2.66,0,3.56.13a11.67,11.67,0,0,1,2.13.38,2,2,0,0,1,1.1.7,4,4,0,0,1,.54,1.11L320,234.1l.32,1.34.33-1.34,10.78-35.32a3.07,3.07,0,0,1,.51-1.11,2.16,2.16,0,0,1,1.11-.7,10.58,10.58,0,0,1,2-.38,32.8,32.8,0,0,1,3.32-.13c1.33,0,2.41,0,3.26.1a7.87,7.87,0,0,1,2,.38,2,2,0,0,1,1,.68A1.65,1.65,0,0,1,344.87,198.56Z"/><path class="cls-1" d="M395.23,221.26a5.26,5.26,0,0,1-1.1,3.67,4,4,0,0,1-3.05,1.19H361.8a19.79,19.79,0,0,0,.73,5.58,10.49,10.49,0,0,0,2.32,4.26,10.05,10.05,0,0,0,4.09,2.67,17.66,17.66,0,0,0,6,.91,34,34,0,0,0,6.25-.51,42.36,42.36,0,0,0,4.67-1.13c1.31-.41,2.4-.79,3.26-1.13a6.1,6.1,0,0,1,2.1-.52,1.64,1.64,0,0,1,.81.19,1.37,1.37,0,0,1,.54.68,4.77,4.77,0,0,1,.3,1.37c.05.6.08,1.34.08,2.24s0,1.47-.06,2a11.69,11.69,0,0,1-.16,1.43,3.46,3.46,0,0,1-.32,1,3.7,3.7,0,0,1-.57.78,6.72,6.72,0,0,1-1.91,1,30.35,30.35,0,0,1-4,1.26,54,54,0,0,1-5.56,1.08,45.42,45.42,0,0,1-6.68.46,35.4,35.4,0,0,1-11.25-1.62,20,20,0,0,1-8.06-4.91,20.37,20.37,0,0,1-4.83-8.3A39,39,0,0,1,348,223.2a37.47,37.47,0,0,1,1.67-11.56,24.32,24.32,0,0,1,4.86-8.74,20.87,20.87,0,0,1,7.74-5.47,26.55,26.55,0,0,1,10.27-1.89,26.84,26.84,0,0,1,10.33,1.78,18.7,18.7,0,0,1,7,4.93,19.89,19.89,0,0,1,4.05,7.47,32.69,32.69,0,0,1,1.29,9.39Zm-13.16-3.88q.17-5.72-2.29-9c-1.63-2.17-4.16-3.26-7.57-3.26a9.83,9.83,0,0,0-4.51,1,9.33,9.33,0,0,0-3.18,2.62,12,12,0,0,0-1.94,3.88,19.19,19.19,0,0,0-.78,4.77Z"/><path class="cls-1" d="M418.91,182.87a10,10,0,0,1-.8,4,10.14,10.14,0,0,1-2.2,3.21,10.26,10.26,0,0,1-3.26,2.14,10.46,10.46,0,0,1-4,.78,10.61,10.61,0,0,1-4.07-.76,9.75,9.75,0,0,1-3.24-2.08,9.44,9.44,0,0,1-2.12-3.17,10.29,10.29,0,0,1-.77-4.05,9.83,9.83,0,0,1,.8-4,10,10,0,0,1,5.46-5.33,10.46,10.46,0,0,1,4-.78,10.92,10.92,0,0,1,4.1.75,10,10,0,0,1,3.23,2.08,9.29,9.29,0,0,1,2.12,3.17A10.57,10.57,0,0,1,418.91,182.87ZM416,183a8.1,8.1,0,0,0-.55-3,7.05,7.05,0,0,0-1.51-2.4,6.56,6.56,0,0,0-2.31-1.58,7.66,7.66,0,0,0-2.94-.55,7.47,7.47,0,0,0-3,.58,6.92,6.92,0,0,0-2.32,1.6,7.31,7.31,0,0,0-1.5,2.36,7.88,7.88,0,0,0-.53,2.88,8.41,8.41,0,0,0,.54,3.06,7.34,7.34,0,0,0,1.53,2.42,6.77,6.77,0,0,0,2.3,1.57,7.5,7.5,0,0,0,2.93.56,7.79,7.79,0,0,0,3-.58,6.78,6.78,0,0,0,2.31-1.6,7.44,7.44,0,0,0,1.49-2.37A8,8,0,0,0,416,183Zm-2.5,4.41a.37.37,0,0,1-.06.21.52.52,0,0,1-.26.14,3.11,3.11,0,0,1-.54.07c-.22,0-.51,0-.88,0s-.65,0-.86,0a1.78,1.78,0,0,1-.51-.11.64.64,0,0,1-.27-.2.86.86,0,0,1-.14-.32l-.42-1.64a2.44,2.44,0,0,0-.56-1.12,1.26,1.26,0,0,0-.9-.29h-.59v3.15a.45.45,0,0,1-.29.44,3.4,3.4,0,0,1-1.2.13,4,4,0,0,1-1.29-.13.45.45,0,0,1-.32-.44v-8.47a1.56,1.56,0,0,1,.32-1,1.29,1.29,0,0,1,1-.37h3.17a8.62,8.62,0,0,1,1.64.15,4,4,0,0,1,1.37.49,2.61,2.61,0,0,1,1.27,2.35,2.57,2.57,0,0,1-.63,1.81,3.37,3.37,0,0,1-1.7,1,2.65,2.65,0,0,1,1.14.62,3.14,3.14,0,0,1,.82,1.31l.5,1.46A4.11,4.11,0,0,1,413.49,187.38Zm-3.62-6.64a1.29,1.29,0,0,0-.07-.43.88.88,0,0,0-.24-.36,1,1,0,0,0-.44-.23,2.41,2.41,0,0,0-.71-.09h-.91V182h.89a1.54,1.54,0,0,0,1.16-.35A1.2,1.2,0,0,0,409.87,180.74Z"/><path class="cls-1" d="M369.25,273.41q0,3.49-1.43,4.83t-5.29,1.33c-2.61,0-4.36-.42-5.27-1.28s-1.35-2.41-1.35-4.65.46-3.95,1.4-4.85,2.71-1.36,5.31-1.36,4.33.44,5.25,1.31S369.25,271.17,369.25,273.41Zm-.88,54.91a1.23,1.23,0,0,1-.28.81,1.94,1.94,0,0,1-.94.57,8.46,8.46,0,0,1-1.77.35c-.73.07-1.67.11-2.8.11s-2.07,0-2.81-.11a8.6,8.6,0,0,1-1.77-.35,2,2,0,0,1-.94-.57,1.23,1.23,0,0,1-.28-.81V287.39a1.22,1.22,0,0,1,.28-.8,2.18,2.18,0,0,1,.94-.6,7.72,7.72,0,0,1,1.77-.39,28.17,28.17,0,0,1,5.61,0,7.6,7.6,0,0,1,1.77.39,2.12,2.12,0,0,1,.94.6,1.22,1.22,0,0,1,.28.8Z"/><path class="cls-1" d="M272.06,327.62a1.24,1.24,0,0,1-.46,1,3.15,3.15,0,0,1-1.45.52,19,19,0,0,1-2.92.17,19.27,19.27,0,0,1-3-.17,2.56,2.56,0,0,1-1.33-.52,1.35,1.35,0,0,1-.39-1v-3.26a18.58,18.58,0,0,1-5.78,4.23,16.78,16.78,0,0,1-7.19,1.52,20.32,20.32,0,0,1-6-.85,13.48,13.48,0,0,1-4.74-2.53,11.37,11.37,0,0,1-3.11-4.17,14.21,14.21,0,0,1-1.1-5.79,13.17,13.17,0,0,1,1.4-6.23,11.44,11.44,0,0,1,4.19-4.37,20.73,20.73,0,0,1,6.92-2.55,49.56,49.56,0,0,1,9.61-.83h4v-2.48a13,13,0,0,0-.39-3.38,5.64,5.64,0,0,0-1.29-2.42,5.22,5.22,0,0,0-2.39-1.42,12.6,12.6,0,0,0-3.7-.46,19,19,0,0,0-5.17.64,30.15,30.15,0,0,0-4,1.43c-1.16.52-2.14,1-2.92,1.42a4.29,4.29,0,0,1-1.91.65,1.35,1.35,0,0,1-.89-.33,2.33,2.33,0,0,1-.65-.92,6,6,0,0,1-.39-1.47,12.58,12.58,0,0,1-.14-1.93,8.87,8.87,0,0,1,.23-2.25,3.55,3.55,0,0,1,.88-1.5,8.85,8.85,0,0,1,2.25-1.47,26,26,0,0,1,3.77-1.49,34.41,34.41,0,0,1,4.72-1.13,34.4,34.4,0,0,1,13.52.51,13.85,13.85,0,0,1,5.63,2.89,11.34,11.34,0,0,1,3.22,5,23.64,23.64,0,0,1,1,7.31ZM260.7,310.06h-4.41a23.54,23.54,0,0,0-4.79.41,9.24,9.24,0,0,0-3.21,1.24,5.08,5.08,0,0,0-1.82,2,6,6,0,0,0-.58,2.69,5.17,5.17,0,0,0,1.64,4.05,6.5,6.5,0,0,0,4.53,1.47,8.45,8.45,0,0,0,4.48-1.24,18.83,18.83,0,0,0,4.16-3.63Z"/><path class="cls-1" d="M318.33,327.53a1.44,1.44,0,0,1-.22.82,1.56,1.56,0,0,1-.77.56,5.06,5.06,0,0,1-1.45.32c-.61.06-1.37.09-2.26.09s-1.74,0-2.33-.09a5.4,5.4,0,0,1-1.46-.32,1.74,1.74,0,0,1-.81-.56,1.37,1.37,0,0,1-.24-.82v-4.44a25.52,25.52,0,0,1-6.48,5.15,15.4,15.4,0,0,1-7.5,1.84,15.58,15.58,0,0,1-7.73-1.77,14.76,14.76,0,0,1-5.16-4.77,20.72,20.72,0,0,1-2.89-7,39,39,0,0,1-.89-8.44,37.1,37.1,0,0,1,1.14-9.59,21.52,21.52,0,0,1,3.34-7.26,14.83,14.83,0,0,1,5.46-4.62,16.88,16.88,0,0,1,7.53-1.61,13.5,13.5,0,0,1,6.1,1.37,21.68,21.68,0,0,1,5.42,4V268.74a1.43,1.43,0,0,1,.24-.81,1.94,1.94,0,0,1,.9-.61,7.93,7.93,0,0,1,1.73-.38,28.73,28.73,0,0,1,5.46,0,7.58,7.58,0,0,1,1.71.38,2.08,2.08,0,0,1,.89.61,1.32,1.32,0,0,1,.27.81Zm-11.2-26.71a24.55,24.55,0,0,0-4.64-4.66,7.73,7.73,0,0,0-4.64-1.61,6.5,6.5,0,0,0-3.78,1.09,8.05,8.05,0,0,0-2.56,2.94,15.5,15.5,0,0,0-1.43,4.1,22.27,22.27,0,0,0-.47,4.64,29,29,0,0,0,.4,4.88,15.5,15.5,0,0,0,1.32,4.24,8.11,8.11,0,0,0,2.45,3,6.36,6.36,0,0,0,3.85,1.12,7.78,7.78,0,0,0,2.26-.34,8.43,8.43,0,0,0,2.24-1.1,15,15,0,0,0,2.35-2,39.17,39.17,0,0,0,2.65-3Z"/><path class="cls-1" d="M351.19,290.78c0,1.11,0,2-.09,2.71a9.22,9.22,0,0,1-.28,1.66,1.63,1.63,0,0,1-.48.83,1.25,1.25,0,0,1-.76.23,2.75,2.75,0,0,1-.83-.16l-1-.35c-.39-.12-.81-.24-1.27-.34a6.51,6.51,0,0,0-1.52-.16,5.16,5.16,0,0,0-1.93.39,8,8,0,0,0-2,1.22,14.6,14.6,0,0,0-2.16,2.2,34.75,34.75,0,0,0-2.41,3.41V328a1.28,1.28,0,0,1-.28.8,2.08,2.08,0,0,1-.94.58,8.83,8.83,0,0,1-1.77.34,27,27,0,0,1-2.81.12,26.69,26.69,0,0,1-2.8-.12,8.55,8.55,0,0,1-1.77-.34,2.12,2.12,0,0,1-.95-.58,1.27,1.27,0,0,1-.27-.8V287a1.37,1.37,0,0,1,.23-.8,1.73,1.73,0,0,1,.82-.58,7.12,7.12,0,0,1,1.54-.34,19.36,19.36,0,0,1,2.37-.12,20.39,20.39,0,0,1,2.44.12,6,6,0,0,1,1.5.34,1.71,1.71,0,0,1,.75.58,1.37,1.37,0,0,1,.23.8v5.11a34.23,34.23,0,0,1,3-3.8,17.17,17.17,0,0,1,2.71-2.36,8.39,8.39,0,0,1,2.58-1.22,9.88,9.88,0,0,1,2.57-.35c.4,0,.83,0,1.29.07a12.84,12.84,0,0,1,1.43.23,9.09,9.09,0,0,1,1.28.37,2.48,2.48,0,0,1,.81.44,1.45,1.45,0,0,1,.37.5,4.76,4.76,0,0,1,.2.76,9.77,9.77,0,0,1,.14,1.45C351.17,288.8,351.19,289.68,351.19,290.78Z"/><path class="cls-1" d="M414.63,327.53a1.44,1.44,0,0,1-.23.82,1.53,1.53,0,0,1-.76.56,5.15,5.15,0,0,1-1.45.32c-.62.06-1.37.09-2.27.09s-1.73,0-2.33-.09a5.41,5.41,0,0,1-1.45-.32,1.65,1.65,0,0,1-.81-.56,1.31,1.31,0,0,1-.25-.82v-4.44a25.65,25.65,0,0,1-6.47,5.15,15.44,15.44,0,0,1-7.51,1.84,15.64,15.64,0,0,1-7.73-1.77,14.81,14.81,0,0,1-5.15-4.77,20.72,20.72,0,0,1-2.89-7,38.38,38.38,0,0,1-.9-8.44,36.65,36.65,0,0,1,1.15-9.59,21.7,21.7,0,0,1,3.33-7.26,14.94,14.94,0,0,1,5.47-4.62,16.88,16.88,0,0,1,7.53-1.61,13.43,13.43,0,0,1,6.09,1.37,21.72,21.72,0,0,1,5.43,4V268.74a1.43,1.43,0,0,1,.24-.81,1.89,1.89,0,0,1,.9-.61,8,8,0,0,1,1.72-.38,28.84,28.84,0,0,1,5.47,0,7.48,7.48,0,0,1,1.7.38,2.06,2.06,0,0,1,.9.61,1.32,1.32,0,0,1,.27.81Zm-11.2-26.71a24.85,24.85,0,0,0-4.64-4.66,7.75,7.75,0,0,0-4.64-1.61,6.53,6.53,0,0,0-3.79,1.09,8,8,0,0,0-2.55,2.94,15.5,15.5,0,0,0-1.43,4.1,22.27,22.27,0,0,0-.47,4.64,29,29,0,0,0,.4,4.88,15.5,15.5,0,0,0,1.32,4.24,8.09,8.09,0,0,0,2.44,3,6.39,6.39,0,0,0,3.86,1.12,7.83,7.83,0,0,0,2.26-.34,8.43,8.43,0,0,0,2.24-1.1,15,15,0,0,0,2.35-2,39.17,39.17,0,0,0,2.65-3Z"/><path class="cls-1" d="M228.53,328a1.6,1.6,0,0,1-.26.89,1.76,1.76,0,0,1-.92.65,9.08,9.08,0,0,1-1.78.39,21.73,21.73,0,0,1-2.82.15,21.22,21.22,0,0,1-2.77-.15,8.4,8.4,0,0,1-1.75-.39,1.93,1.93,0,0,1-.93-.65A1.54,1.54,0,0,1,217,328V275.81h-.09l-17.32,52.1A2.6,2.6,0,0,1,199,329a3,3,0,0,1-1.14.67,7.3,7.3,0,0,1-1.82.32c-.74,0-1.63.07-2.68.07a25.41,25.41,0,0,1-2.68-.12,7.4,7.4,0,0,1-1.82-.4,3.27,3.27,0,0,1-1.14-.67,1.91,1.91,0,0,1-.55-.94l-16.72-52.1h-.1V328a1.59,1.59,0,0,1-.25.89,1.82,1.82,0,0,1-1,.65,9.43,9.43,0,0,1-1.78.39,25.84,25.84,0,0,1-5.56,0,8.92,8.92,0,0,1-1.78-.39,1.79,1.79,0,0,1-.93-.65,1.68,1.68,0,0,1-.25-.89v-57.1a5.45,5.45,0,0,1,1.25-3.86,4.3,4.3,0,0,1,3.32-1.34h7.95A15.49,15.49,0,0,1,175,266a6.57,6.57,0,0,1,4.48,3.52A17.13,17.13,0,0,1,180.8,273l12.94,38.18h.19l13.39-38.08a20.78,20.78,0,0,1,1.32-3.52,8.28,8.28,0,0,1,1.66-2.33,5.46,5.46,0,0,1,2.24-1.26,10.87,10.87,0,0,1,3-.37h8.17a6,6,0,0,1,2.15.34,3.74,3.74,0,0,1,1.48,1,4.64,4.64,0,0,1,.88,1.63,7.48,7.48,0,0,1,.3,2.21Z"/></g></g></svg>