<?xml version="1.0" standalone="no"?>
<!DOCTYPE svg PUBLIC "-//W3C//DTD SVG 20010904//EN"
 "http://www.w3.org/TR/2001/REC-SVG-20010904/DTD/svg10.dtd">
<svg version="1.0" xmlns="http://www.w3.org/2000/svg"
 width="1584.000000pt" height="1584.000000pt" viewBox="0 0 1584.000000 1584.000000"
 preserveAspectRatio="xMidYMid meet">
<metadata>
Created by potrace 1.14, written by Peter Selinger 2001-2017
</metadata>
<g transform="translate(0.000000,1584.000000) scale(0.100000,-0.100000)"
fill="#000000" stroke="none">
<path d="M7889 11146 c-2 -2 -49 -7 -104 -10 -103 -7 -172 -14 -215 -22 -14
-2 -45 -7 -69 -9 -66 -8 -226 -34 -301 -50 -14 -3 -41 -8 -60 -11 -19 -3 -114
-26 -210 -51 -206 -52 -191 -48 -210 -56 -8 -4 -26 -8 -40 -11 -14 -2 -52 -14
-85 -26 -33 -12 -67 -23 -75 -25 -29 -7 -257 -90 -310 -112 -8 -3 -17 -7 -20
-8 -120 -42 -600 -267 -775 -364 -27 -15 -72 -40 -100 -55 -27 -15 -63 -35
-80 -45 -92 -55 -123 -73 -152 -88 -18 -9 -33 -20 -33 -25 0 -4 -4 -8 -10 -8
-9 0 -280 -168 -290 -180 -3 -4 -43 -32 -90 -63 -124 -82 -310 -215 -385 -275
-5 -4 -39 -30 -75 -57 -90 -68 -399 -317 -433 -349 -15 -14 -30 -26 -33 -26
-2 0 -12 -8 -22 -17 -24 -24 -96 -87 -161 -142 -29 -24 -69 -60 -90 -80 -21
-20 -82 -76 -136 -126 -150 -138 -175 -162 -390 -375 -171 -170 -272 -274
-447 -461 -63 -68 -196 -214 -230 -253 -18 -21 -46 -53 -63 -71 -16 -17 -41
-45 -54 -61 -13 -16 -50 -58 -81 -94 -31 -36 -68 -78 -81 -94 -13 -16 -29 -34
-34 -40 -6 -6 -45 -54 -89 -106 -43 -52 -88 -106 -100 -120 -12 -14 -57 -70
-101 -125 -44 -55 -85 -107 -92 -115 -6 -8 -28 -35 -47 -60 -20 -25 -41 -51
-47 -58 -6 -7 -34 -43 -62 -80 -28 -37 -54 -68 -59 -70 -4 -2 -8 -8 -8 -14 0
-5 -6 -15 -12 -22 -7 -7 -22 -25 -33 -40 -11 -15 -27 -36 -35 -46 -8 -10 -23
-29 -32 -42 -41 -56 -158 -215 -173 -233 -8 -11 -33 -45 -55 -75 -22 -30 -43
-59 -48 -65 -9 -11 -139 -195 -162 -229 -8 -13 -27 -42 -43 -65 -15 -22 -34
-49 -41 -59 -31 -37 -246 -363 -246 -371 0 -5 -4 -11 -8 -13 -9 -3 -142 -205
-142 -215 0 -4 -7 -14 -16 -24 -9 -10 -33 -45 -53 -78 -36 -61 -146 -240 -189
-309 -12 -20 -25 -44 -29 -52 -4 -8 -11 -18 -17 -22 -6 -4 -8 -9 -5 -12 3 -4
3567 -5 7921 -4 l7915 3 -99 155 c-54 85 -101 163 -105 172 -3 10 -9 18 -14
18 -5 0 -9 7 -9 15 0 8 -4 15 -10 15 -5 0 -10 5 -10 11 0 6 -13 30 -30 54 -16
24 -30 48 -30 53 0 6 -4 12 -8 14 -10 4 -132 197 -132 208 0 5 -3 10 -8 12 -6
2 -207 315 -247 385 -6 10 -24 38 -40 63 -16 25 -34 53 -40 63 -14 23 -148
237 -201 318 l-42 65 -209 -52 c-114 -30 -210 -54 -213 -54 -3 0 -21 -5 -40
-10 -19 -5 -53 -12 -75 -16 -22 -3 -43 -8 -46 -10 -6 -3 -244 -57 -334 -75
-27 -6 -59 -12 -70 -15 -97 -20 -377 -75 -404 -79 -14 -2 -37 -6 -51 -9 -13
-3 -40 -8 -60 -11 -20 -3 -47 -8 -60 -11 -39 -8 -62 -12 -105 -18 -22 -3 -50
-7 -61 -10 -32 -7 -129 -22 -194 -31 -19 -2 -44 -6 -55 -9 -11 -2 -42 -7 -70
-10 -27 -4 -61 -9 -75 -11 -14 -3 -41 -7 -60 -9 -66 -8 -135 -17 -160 -22 -14
-2 -47 -6 -75 -9 -84 -8 -148 -15 -180 -20 -16 -3 -52 -7 -80 -10 -73 -7 -156
-15 -190 -20 -16 -2 -66 -7 -110 -10 -44 -4 -96 -9 -115 -11 -19 -2 -73 -6
-120 -9 -47 -2 -128 -7 -180 -10 -216 -13 -276 -15 -507 -19 -134 -3 -246 -7
-250 -9 -5 -2 -17 -3 -28 -1 -11 3 -117 6 -235 9 -118 2 -253 7 -300 10 -135
8 -241 16 -300 21 -30 3 -77 6 -105 8 -27 3 -70 7 -95 10 -25 3 -71 8 -103 11
-32 4 -68 8 -80 11 -12 2 -42 6 -67 9 -25 3 -88 12 -140 21 -52 8 -108 17
-125 20 -16 2 -64 11 -105 19 -41 9 -86 17 -100 20 -61 11 -223 49 -310 72
-52 14 -99 26 -105 27 -12 3 -20 5 -205 63 -80 25 -149 49 -154 54 -6 5 -19 9
-31 9 -12 0 -25 4 -31 8 -5 5 -31 17 -59 27 -27 9 -66 24 -85 32 -19 8 -44 19
-55 23 -11 4 -92 43 -180 86 -293 142 -551 310 -764 499 -53 47 -231 225 -231
231 0 3 10 2 21 -1 12 -4 27 -8 33 -9 6 -1 20 -7 31 -13 11 -6 36 -14 55 -18
19 -4 41 -11 50 -16 8 -4 132 -49 275 -99 143 -50 289 -102 325 -114 36 -13
88 -31 115 -41 28 -9 57 -19 65 -22 8 -3 20 -7 25 -9 6 -1 100 -33 210 -69
110 -37 209 -69 220 -71 27 -7 38 -10 55 -17 8 -3 40 -13 70 -21 30 -8 85 -23
123 -35 37 -11 70 -20 72 -20 3 -1 6 -1 8 -2 1 0 9 -2 17 -4 8 -2 42 -11 75
-20 33 -8 68 -17 78 -20 10 -2 28 -7 39 -11 11 -3 30 -7 41 -9 12 -2 32 -6 45
-9 12 -3 32 -8 45 -11 12 -2 42 -9 67 -15 25 -5 56 -12 70 -15 14 -2 45 -9 70
-14 25 -5 63 -12 85 -15 23 -4 52 -9 65 -12 14 -3 34 -7 45 -9 29 -6 229 -35
278 -40 23 -3 58 -7 77 -10 19 -2 69 -7 110 -10 41 -4 93 -8 115 -11 289 -31
929 -20 1281 21 28 3 71 8 95 10 123 13 339 44 419 60 14 3 39 7 55 10 17 2
44 7 60 10 17 4 74 15 127 25 128 26 221 46 348 77 58 13 116 27 130 29 14 3
43 10 65 16 22 6 45 12 50 14 6 1 30 8 55 15 25 7 52 14 61 15 9 0 21 4 28 8
6 4 19 9 29 11 9 1 37 9 62 16 25 7 48 13 53 15 4 1 8 2 10 3 1 2 11 4 22 6
11 2 56 16 100 30 44 15 89 29 100 31 11 2 61 17 110 34 50 17 97 32 105 35
13 3 179 58 220 73 8 3 18 4 23 4 4 -1 7 3 7 10 0 6 3 9 6 5 3 -3 36 6 72 20
37 14 72 26 79 27 7 1 16 5 20 9 7 7 -95 3 -182 -7 -22 -3 -76 -8 -120 -11
-44 -3 -98 -8 -120 -10 -22 -3 -62 -7 -90 -9 -56 -5 -157 -14 -225 -21 -117
-12 -150 -15 -210 -21 -36 -3 -85 -7 -110 -10 -25 -2 -68 -6 -95 -9 -28 -3
-80 -8 -115 -11 -36 -3 -83 -7 -105 -9 -22 -2 -74 -6 -115 -10 -41 -3 -93 -7
-115 -9 -46 -5 -170 -15 -265 -21 -36 -2 -96 -6 -135 -9 -553 -41 -1258 -50
-1695 -21 -103 6 -222 16 -265 21 -22 2 -58 6 -80 8 -22 3 -58 7 -80 10 -22 3
-60 8 -85 11 -25 3 -61 8 -80 10 -19 3 -46 7 -60 9 -21 4 -61 10 -175 31 -44
7 -182 37 -215 45 -19 5 -46 11 -60 14 -38 7 -270 75 -310 90 -19 8 -39 15
-45 16 -89 21 -407 163 -559 249 -75 43 -211 135 -281 190 -38 31 -78 63 -88
71 -54 43 -235 231 -285 295 -10 14 -102 142 -132 185 -60 86 -214 418 -234
505 -2 6 -8 28 -14 51 -11 37 -25 104 -38 174 -9 52 -11 288 -2 336 4 27 10
58 12 69 11 73 50 184 97 282 89 184 258 375 459 518 30 22 57 43 58 47 2 5 8
8 13 8 5 0 39 19 76 43 88 56 312 166 433 213 141 54 370 121 472 139 18 4 53
11 78 16 25 6 63 13 85 15 22 3 65 9 95 14 76 11 271 7 294 -7 17 -9 13 -13
-37 -29 -31 -10 -57 -21 -57 -26 0 -4 -6 -8 -14 -8 -32 0 -389 -176 -486 -239
-14 -9 -37 -23 -52 -31 -16 -7 -28 -17 -28 -22 0 -4 -4 -8 -9 -8 -12 0 -105
-61 -109 -72 -2 -4 -8 -8 -13 -8 -8 0 -102 -70 -174 -130 -56 -46 -221 -215
-251 -255 -16 -22 -37 -49 -47 -60 -10 -11 -30 -41 -44 -67 -15 -27 -31 -48
-36 -48 -6 0 -8 -3 -4 -6 3 -3 -9 -36 -28 -72 -50 -100 -82 -213 -90 -312 -2
-25 -4 -49 -5 -55 -1 -5 -2 -12 -1 -15 1 -3 3 -41 6 -85 2 -44 7 -91 10 -105
3 -14 8 -36 11 -50 10 -51 81 -240 93 -250 3 -3 17 -29 30 -57 14 -29 27 -53
31 -53 4 0 12 -12 19 -27 46 -101 272 -357 454 -516 33 -28 65 -57 71 -63 15
-14 207 -164 241 -189 16 -11 34 -26 42 -33 7 -8 17 -12 22 -10 5 2 -10 26
-35 53 -60 67 -64 73 -64 84 0 5 -4 11 -9 13 -11 4 -111 155 -111 167 0 5 -4
11 -8 13 -20 8 -129 255 -147 333 -3 11 -11 47 -20 80 -30 122 -35 328 -10
445 2 14 7 34 9 46 16 80 93 269 138 338 76 117 104 151 213 262 82 83 153
142 281 232 10 7 44 27 79 46 11 6 22 13 25 16 3 3 32 19 65 35 33 17 63 34
66 38 3 5 8 8 10 7 2 -2 29 8 59 21 30 13 58 23 63 21 4 -1 7 3 7 8 0 6 6 10
13 9 6 -1 26 3 42 10 34 15 133 50 155 55 8 2 51 14 95 25 44 12 94 24 110 27
17 3 50 10 75 15 43 10 87 17 155 24 17 1 66 6 110 11 145 15 530 9 635 -11
14 -2 41 -7 60 -9 71 -10 117 -17 190 -32 41 -9 80 -17 85 -18 6 -1 16 -5 23
-9 6 -5 12 -6 12 -3 0 3 21 -2 48 -10 26 -8 56 -17 66 -19 22 -5 85 -24 106
-32 8 -3 20 -7 25 -9 24 -5 177 -65 254 -98 151 -65 367 -183 494 -269 32 -22
60 -38 62 -35 11 10 -225 336 -296 409 -16 17 -29 32 -29 34 0 10 -256 259
-345 336 -151 130 -437 339 -463 339 -6 0 -12 3 -14 8 -4 9 -200 125 -243 144
-16 7 -32 15 -35 18 -10 11 -248 123 -350 165 -36 14 -74 30 -85 35 -11 4 -54
20 -95 35 -41 15 -82 29 -90 32 -8 4 -17 7 -20 8 -3 1 -36 12 -75 24 -38 13
-83 27 -100 31 -129 37 -212 59 -237 64 -124 28 -217 48 -238 52 -14 2 -36 7
-50 10 -14 4 -38 8 -55 10 -16 2 -41 6 -55 9 -14 3 -43 8 -65 10 -22 2 -53 6
-70 9 -31 5 -85 12 -157 21 -24 3 -72 8 -108 11 -36 3 -78 7 -95 10 -35 6
-630 15 -636 10z"/>
</g>
</svg>
