<svg width="123" height="88" viewBox="0 0 123 88" fill="none" xmlns="http://www.w3.org/2000/svg">
<path d="M17.5996 64H15.8154L14.9336 61.5049H11.0781L10.2305 64H8.45312L12.124 54.1973H13.9561L17.5996 64ZM14.5029 60.1787L13.1426 56.2686C13.1016 56.141 13.0583 55.9359 13.0127 55.6533H12.9854C12.9443 55.9131 12.8988 56.1182 12.8486 56.2686L11.502 60.1787H14.5029ZM22.8359 58.5107C22.6445 58.3604 22.3688 58.2852 22.0088 58.2852C21.5394 58.2852 21.1475 58.4971 20.833 58.9209C20.5186 59.3447 20.3613 59.9212 20.3613 60.6504V64H18.7754V57H20.3613V58.4424H20.3887C20.5436 57.9502 20.7806 57.5674 21.0996 57.2939C21.4232 57.016 21.7832 56.877 22.1797 56.877C22.4668 56.877 22.6855 56.9202 22.8359 57.0068V58.5107ZM28.0176 58.5107C27.8262 58.3604 27.5505 58.2852 27.1904 58.2852C26.721 58.2852 26.3291 58.4971 26.0146 58.9209C25.7002 59.3447 25.543 59.9212 25.543 60.6504V64H23.957V57H25.543V58.4424H25.5703C25.7253 57.9502 25.9622 57.5674 26.2812 57.2939C26.6048 57.016 26.9648 56.877 27.3613 56.877C27.6484 56.877 27.8672 56.9202 28.0176 57.0068V58.5107ZM34.5117 64H32.9736V62.9062H32.9463C32.4632 63.7448 31.7546 64.1641 30.8203 64.1641C30.1322 64.1641 29.5921 63.9772 29.2002 63.6035C28.8128 63.2298 28.6191 62.7354 28.6191 62.1201C28.6191 60.7985 29.3802 60.0283 30.9023 59.8096L32.9805 59.5156C32.9805 58.5176 32.5065 58.0186 31.5586 58.0186C30.7246 58.0186 29.9727 58.3057 29.3027 58.8799V57.4922C30.041 57.0547 30.8932 56.8359 31.8594 56.8359C33.6276 56.8359 34.5117 57.7064 34.5117 59.4473V64ZM32.9805 60.5615L31.5107 60.7666C31.055 60.8258 30.7109 60.9375 30.4785 61.1016C30.2507 61.2611 30.1367 61.5436 30.1367 61.9492C30.1367 62.2454 30.2415 62.4893 30.4512 62.6807C30.6654 62.8675 30.9502 62.9609 31.3057 62.9609C31.7887 62.9609 32.1875 62.7923 32.502 62.4551C32.821 62.1133 32.9805 61.6849 32.9805 61.1699V60.5615ZM36.0156 63.7812V62.3115C36.6081 62.7627 37.262 62.9883 37.9775 62.9883C38.9346 62.9883 39.4131 62.7057 39.4131 62.1406C39.4131 61.9811 39.3721 61.8467 39.29 61.7373C39.208 61.6234 39.0964 61.5231 38.9551 61.4365C38.8184 61.3499 38.6543 61.2725 38.4629 61.2041C38.276 61.1357 38.0664 61.0583 37.834 60.9717C37.5469 60.8577 37.2871 60.737 37.0547 60.6094C36.8268 60.4818 36.6354 60.3382 36.4805 60.1787C36.3301 60.0146 36.2161 59.8301 36.1387 59.625C36.0612 59.4199 36.0225 59.1807 36.0225 58.9072C36.0225 58.57 36.1022 58.2738 36.2617 58.0186C36.4212 57.7588 36.6354 57.5423 36.9043 57.3691C37.1732 57.1914 37.4785 57.0592 37.8203 56.9727C38.1621 56.8815 38.5153 56.8359 38.8799 56.8359C39.527 56.8359 40.1058 56.9339 40.6162 57.1299V58.5176C40.124 58.1803 39.5589 58.0117 38.9209 58.0117C38.7204 58.0117 38.5381 58.0322 38.374 58.0732C38.2145 58.1143 38.0778 58.1712 37.9639 58.2441C37.8499 58.3171 37.7611 58.4059 37.6973 58.5107C37.6335 58.611 37.6016 58.7227 37.6016 58.8457C37.6016 58.9961 37.6335 59.1237 37.6973 59.2285C37.7611 59.3333 37.8545 59.4268 37.9775 59.5088C38.1051 59.5863 38.2555 59.6592 38.4287 59.7275C38.6064 59.7913 38.8092 59.862 39.0371 59.9395C39.3379 60.0625 39.6068 60.1878 39.8438 60.3154C40.0853 60.443 40.2904 60.5889 40.459 60.7529C40.6276 60.9124 40.7575 61.0993 40.8486 61.3135C40.9398 61.5231 40.9854 61.7738 40.9854 62.0654C40.9854 62.4209 40.9033 62.7308 40.7393 62.9951C40.5752 63.2594 40.3564 63.4782 40.083 63.6514C39.8096 63.8245 39.4928 63.9521 39.1328 64.0342C38.7773 64.1208 38.4014 64.1641 38.0049 64.1641C37.2393 64.1641 36.5762 64.0365 36.0156 63.7812ZM46.1875 63.9248C45.8776 64.0798 45.4697 64.1572 44.9639 64.1572C43.6058 64.1572 42.9268 63.5055 42.9268 62.2021V58.2441H41.7578V57H42.9268V55.3799L44.5127 54.9287V57H46.1875V58.2441H44.5127V61.7441C44.5127 62.1589 44.5879 62.4551 44.7383 62.6328C44.8887 62.8105 45.1393 62.8994 45.4902 62.8994C45.7591 62.8994 45.9915 62.8219 46.1875 62.667V63.9248ZM51.6152 58.5107C51.4238 58.3604 51.1481 58.2852 50.7881 58.2852C50.3187 58.2852 49.9268 58.4971 49.6123 58.9209C49.2979 59.3447 49.1406 59.9212 49.1406 60.6504V64H47.5547V57H49.1406V58.4424H49.168C49.3229 57.9502 49.5599 57.5674 49.8789 57.2939C50.2025 57.016 50.5625 56.877 50.959 56.877C51.2461 56.877 51.4648 56.9202 51.6152 57.0068V58.5107ZM58.1094 64H56.5713V62.9062H56.5439C56.0609 63.7448 55.3522 64.1641 54.418 64.1641C53.7298 64.1641 53.1898 63.9772 52.7979 63.6035C52.4105 63.2298 52.2168 62.7354 52.2168 62.1201C52.2168 60.7985 52.9779 60.0283 54.5 59.8096L56.5781 59.5156C56.5781 58.5176 56.1042 58.0186 55.1562 58.0186C54.3223 58.0186 53.5703 58.3057 52.9004 58.8799V57.4922C53.6387 57.0547 54.4909 56.8359 55.457 56.8359C57.2253 56.8359 58.1094 57.7064 58.1094 59.4473V64ZM56.5781 60.5615L55.1084 60.7666C54.6527 60.8258 54.3086 60.9375 54.0762 61.1016C53.8483 61.2611 53.7344 61.5436 53.7344 61.9492C53.7344 62.2454 53.8392 62.4893 54.0488 62.6807C54.263 62.8675 54.5479 62.9609 54.9033 62.9609C55.3864 62.9609 55.7852 62.7923 56.0996 62.4551C56.4186 62.1133 56.5781 61.6849 56.5781 61.1699V60.5615ZM64.1113 58.5107C63.9199 58.3604 63.6442 58.2852 63.2842 58.2852C62.8148 58.2852 62.4229 58.4971 62.1084 58.9209C61.7939 59.3447 61.6367 59.9212 61.6367 60.6504V64H60.0508V57H61.6367V58.4424H61.6641C61.819 57.9502 62.056 57.5674 62.375 57.2939C62.6986 57.016 63.0586 56.877 63.4551 56.877C63.7422 56.877 63.9609 56.9202 64.1113 57.0068V58.5107ZM75.1514 57L71.9932 65.1211C71.3369 66.5703 70.4163 67.2949 69.2314 67.2949C68.8988 67.2949 68.6208 67.2653 68.3975 67.2061V65.8867C68.6481 65.9688 68.876 66.0098 69.0811 66.0098C69.6735 66.0098 70.1156 65.7181 70.4072 65.1348L70.8789 63.9863L68.0967 57H69.8535L71.5215 62.0859C71.5397 62.1497 71.5807 62.3184 71.6445 62.5918H71.6787C71.7015 62.487 71.7425 62.3229 71.8018 62.0996L73.5518 57H75.1514ZM79.6289 63.7812V62.3115C80.2214 62.7627 80.8753 62.9883 81.5908 62.9883C82.5479 62.9883 83.0264 62.7057 83.0264 62.1406C83.0264 61.9811 82.9854 61.8467 82.9033 61.7373C82.8213 61.6234 82.7096 61.5231 82.5684 61.4365C82.4316 61.3499 82.2676 61.2725 82.0762 61.2041C81.8893 61.1357 81.6797 61.0583 81.4473 60.9717C81.1602 60.8577 80.9004 60.737 80.668 60.6094C80.4401 60.4818 80.2487 60.3382 80.0938 60.1787C79.9434 60.0146 79.8294 59.8301 79.752 59.625C79.6745 59.4199 79.6357 59.1807 79.6357 58.9072C79.6357 58.57 79.7155 58.2738 79.875 58.0186C80.0345 57.7588 80.2487 57.5423 80.5176 57.3691C80.7865 57.1914 81.0918 57.0592 81.4336 56.9727C81.7754 56.8815 82.1286 56.8359 82.4932 56.8359C83.1403 56.8359 83.7191 56.9339 84.2295 57.1299V58.5176C83.7373 58.1803 83.1722 58.0117 82.5342 58.0117C82.3337 58.0117 82.1514 58.0322 81.9873 58.0732C81.8278 58.1143 81.6911 58.1712 81.5771 58.2441C81.4632 58.3171 81.3743 58.4059 81.3105 58.5107C81.2467 58.611 81.2148 58.7227 81.2148 58.8457C81.2148 58.9961 81.2467 59.1237 81.3105 59.2285C81.3743 59.3333 81.4678 59.4268 81.5908 59.5088C81.7184 59.5863 81.8688 59.6592 82.042 59.7275C82.2197 59.7913 82.4225 59.862 82.6504 59.9395C82.9512 60.0625 83.2201 60.1878 83.457 60.3154C83.6986 60.443 83.9036 60.5889 84.0723 60.7529C84.2409 60.9124 84.3708 61.0993 84.4619 61.3135C84.5531 61.5231 84.5986 61.7738 84.5986 62.0654C84.5986 62.4209 84.5166 62.7308 84.3525 62.9951C84.1885 63.2594 83.9697 63.4782 83.6963 63.6514C83.4229 63.8245 83.1061 63.9521 82.7461 64.0342C82.3906 64.1208 82.0146 64.1641 81.6182 64.1641C80.8525 64.1641 80.1895 64.0365 79.6289 63.7812ZM89.2129 64.1641C88.1328 64.1641 87.2692 63.8382 86.6221 63.1865C85.9795 62.5303 85.6582 61.6621 85.6582 60.582C85.6582 59.4062 85.9932 58.488 86.6631 57.8271C87.3376 57.1663 88.2445 56.8359 89.3838 56.8359C90.4775 56.8359 91.3298 57.1572 91.9404 57.7998C92.5511 58.4424 92.8564 59.3333 92.8564 60.4727C92.8564 61.5892 92.526 62.4847 91.8652 63.1592C91.209 63.8291 90.3249 64.1641 89.2129 64.1641ZM89.2881 58.1006C88.6683 58.1006 88.1784 58.3171 87.8184 58.75C87.4583 59.1829 87.2783 59.7799 87.2783 60.541C87.2783 61.2747 87.4606 61.8535 87.8252 62.2773C88.1898 62.6966 88.6774 62.9062 89.2881 62.9062C89.9124 62.9062 90.391 62.6989 90.7236 62.2842C91.0609 61.8695 91.2295 61.2793 91.2295 60.5137C91.2295 59.7435 91.0609 59.1488 90.7236 58.7295C90.391 58.3102 89.9124 58.1006 89.2881 58.1006ZM96.0693 64H94.4766V53.6367H96.0693V64ZM101.832 63.9248C101.522 64.0798 101.114 64.1572 100.608 64.1572C99.2503 64.1572 98.5713 63.5055 98.5713 62.2021V58.2441H97.4023V57H98.5713V55.3799L100.157 54.9287V57H101.832V58.2441H100.157V61.7441C100.157 62.1589 100.232 62.4551 100.383 62.6328C100.533 62.8105 100.784 62.8994 101.135 62.8994C101.404 62.8994 101.636 62.8219 101.832 62.667V63.9248ZM108.572 64H107.034V62.9062H107.007C106.524 63.7448 105.815 64.1641 104.881 64.1641C104.193 64.1641 103.653 63.9772 103.261 63.6035C102.873 63.2298 102.68 62.7354 102.68 62.1201C102.68 60.7985 103.441 60.0283 104.963 59.8096L107.041 59.5156C107.041 58.5176 106.567 58.0186 105.619 58.0186C104.785 58.0186 104.033 58.3057 103.363 58.8799V57.4922C104.102 57.0547 104.954 56.8359 105.92 56.8359C107.688 56.8359 108.572 57.7064 108.572 59.4473V64ZM107.041 60.5615L105.571 60.7666C105.116 60.8258 104.771 60.9375 104.539 61.1016C104.311 61.2611 104.197 61.5436 104.197 61.9492C104.197 62.2454 104.302 62.4893 104.512 62.6807C104.726 62.8675 105.011 62.9609 105.366 62.9609C105.849 62.9609 106.248 62.7923 106.562 62.4551C106.882 62.1133 107.041 61.6849 107.041 61.1699V60.5615ZM114.574 58.5107C114.383 58.3604 114.107 58.2852 113.747 58.2852C113.278 58.2852 112.886 58.4971 112.571 58.9209C112.257 59.3447 112.1 59.9212 112.1 60.6504V64H110.514V57H112.1V58.4424H112.127C112.282 57.9502 112.519 57.5674 112.838 57.2939C113.161 57.016 113.521 56.877 113.918 56.877C114.205 56.877 114.424 56.9202 114.574 57.0068V58.5107Z" fill="#595D6E"/>
<path d="M40.959 83H39.5234V74.5977H40.959V83ZM51.8516 83H50.4922V79.7305C50.4922 79.1016 50.4023 78.6465 50.2227 78.3652C50.0469 78.084 49.748 77.9434 49.3262 77.9434C48.9707 77.9434 48.668 78.1211 48.418 78.4766C48.1719 78.832 48.0488 79.2578 48.0488 79.7539V83H46.6836V79.6191C46.6836 78.502 46.2891 77.9434 45.5 77.9434C45.1328 77.9434 44.8301 78.1113 44.5918 78.4473C44.3574 78.7832 44.2402 79.2188 44.2402 79.7539V83H42.8809V77H44.2402V77.9492H44.2637C44.6973 77.2227 45.3281 76.8594 46.1562 76.8594C46.5703 76.8594 46.9316 76.9746 47.2402 77.2051C47.5527 77.4316 47.7656 77.7305 47.8789 78.1016C48.3242 77.2734 48.9883 76.8594 49.8711 76.8594C51.1914 76.8594 51.8516 77.6738 51.8516 79.3027V83ZM58.1152 83H56.7969V82.0625H56.7734C56.3594 82.7812 55.752 83.1406 54.9512 83.1406C54.3613 83.1406 53.8984 82.9805 53.5625 82.6602C53.2305 82.3398 53.0645 81.916 53.0645 81.3887C53.0645 80.2559 53.7168 79.5957 55.0215 79.4082L56.8027 79.1562C56.8027 78.3008 56.3965 77.873 55.584 77.873C54.8691 77.873 54.2246 78.1191 53.6504 78.6113V77.4219C54.2832 77.0469 55.0137 76.8594 55.8418 76.8594C57.3574 76.8594 58.1152 77.6055 58.1152 79.0977V83ZM56.8027 80.0527L55.543 80.2285C55.1523 80.2793 54.8574 80.375 54.6582 80.5156C54.4629 80.6523 54.3652 80.8945 54.3652 81.2422C54.3652 81.4961 54.4551 81.7051 54.6348 81.8691C54.8184 82.0293 55.0625 82.1094 55.3672 82.1094C55.7812 82.1094 56.123 81.9648 56.3926 81.6758C56.666 81.3828 56.8027 81.0156 56.8027 80.5742V80.0527ZM65.2402 82.5195C65.2402 84.7227 64.1328 85.8242 61.918 85.8242C61.1367 85.8242 60.4551 85.6934 59.873 85.4316V84.1895C60.5293 84.5645 61.1523 84.752 61.7422 84.752C63.168 84.752 63.8809 84.0508 63.8809 82.6484V81.9922H63.8574C63.4082 82.7578 62.7324 83.1406 61.8301 83.1406C61.0996 83.1406 60.5098 82.875 60.0605 82.3438C59.6152 81.8086 59.3926 81.0918 59.3926 80.1934C59.3926 79.1738 59.6328 78.3633 60.1133 77.7617C60.5938 77.1602 61.2539 76.8594 62.0938 76.8594C62.8867 76.8594 63.4746 77.1836 63.8574 77.832H63.8809V77H65.2402V82.5195ZM63.8926 80.252V79.4727C63.8926 79.0508 63.752 78.6914 63.4707 78.3945C63.1934 78.0938 62.8457 77.9434 62.4277 77.9434C61.9121 77.9434 61.5078 78.1348 61.2148 78.5176C60.9258 78.8965 60.7812 79.4277 60.7812 80.1113C60.7812 80.7012 60.9199 81.1738 61.1973 81.5293C61.4785 81.8809 61.8496 82.0566 62.3105 82.0566C62.7793 82.0566 63.1602 81.8887 63.4531 81.5527C63.7461 81.2129 63.8926 80.7793 63.8926 80.252ZM72.0898 80.3691H68C68.0156 80.9238 68.1855 81.3516 68.5098 81.6523C68.8379 81.9531 69.2871 82.1035 69.8574 82.1035C70.498 82.1035 71.0859 81.9121 71.6211 81.5293V82.625C71.0742 82.9688 70.3516 83.1406 69.4531 83.1406C68.5703 83.1406 67.877 82.8691 67.373 82.3262C66.873 81.7793 66.623 81.0117 66.623 80.0234C66.623 79.0898 66.8984 78.3301 67.4492 77.7441C68.0039 77.1543 68.6914 76.8594 69.5117 76.8594C70.332 76.8594 70.9668 77.123 71.416 77.6504C71.8652 78.1777 72.0898 78.9102 72.0898 79.8477V80.3691ZM70.7773 79.4082C70.7734 78.9199 70.6582 78.541 70.4316 78.2715C70.2051 77.998 69.8926 77.8613 69.4941 77.8613C69.1035 77.8613 68.7715 78.0039 68.498 78.2891C68.2285 78.5742 68.0625 78.9473 68 79.4082H70.7773ZM78.7285 83H77.3691V79.6191C77.3691 78.498 76.9727 77.9375 76.1797 77.9375C75.7656 77.9375 75.4238 78.0938 75.1543 78.4062C74.8848 78.7148 74.75 79.1055 74.75 79.5781V83H73.3848V77H74.75V77.9961H74.7734C75.2227 77.2383 75.8711 76.8594 76.7188 76.8594C77.3711 76.8594 77.8691 77.0723 78.2129 77.498C78.5566 77.9199 78.7285 78.5312 78.7285 79.332V83Z" fill="#595D6E"/>
<g clip-path="url(#clip0)">
<path d="M75.259 13.909C73.5064 5.07003 64.9552 -0.666101 56.1608 1.09518C49.7281 2.3838 44.6984 7.43538 43.412 13.8988C37.1761 14.6211 32.7028 20.2869 33.4215 26.5538C34.0824 32.3215 38.9439 36.6732 44.7217 36.6691H52.84C53.7371 36.6691 54.4639 35.9388 54.4639 35.0372C54.4639 34.1357 53.7371 33.4053 52.84 33.4053H44.7217C40.2373 33.3788 36.6246 29.7045 36.65 25.1979C36.6763 20.6923 40.3326 17.0608 44.817 17.0862C45.6441 17.0862 46.3395 16.4608 46.4307 15.6346C47.2548 8.47238 53.7006 3.33829 60.8276 4.16647C66.8193 4.86324 71.546 9.61227 72.2383 15.6346C72.3741 16.4761 73.0999 17.0924 73.9483 17.0862C78.4327 17.0862 82.0677 20.7392 82.0677 25.2458C82.0677 29.7514 78.4327 33.4043 73.9483 33.4043H65.83C64.9329 33.4043 64.2061 34.1347 64.2061 35.0362C64.2061 35.9377 64.9329 36.6681 65.83 36.6681H73.9493C80.2269 36.6284 85.284 31.4831 85.2445 25.1745C85.209 19.4312 80.9334 14.6068 75.259 13.909Z" fill="#595D6E"/>
<path d="M65.0739 30.0592C65.6973 30.7081 66.7251 30.7254 67.3698 30.0989C68.0145 29.4735 68.0327 28.4395 67.4093 27.7916C67.3962 27.7774 67.383 27.7641 67.3698 27.7509L60.4831 20.829C59.8495 20.1913 58.8217 20.1893 58.1861 20.826C58.1851 20.827 58.1841 20.828 58.1831 20.829L51.2963 27.7509C50.6516 28.3774 50.6334 29.4103 51.2568 30.0582C51.8802 30.706 52.908 30.7244 53.5527 30.0979C53.5659 30.0847 53.5801 30.0714 53.5933 30.0582L57.7097 25.9203V46.4587C57.7097 47.3603 58.4365 48.0907 59.3336 48.0907C60.2296 48.0907 60.9574 47.3603 60.9574 46.4587V25.9214L65.0739 30.0592Z" fill="#595D6E"/>
</g>
<defs>
<clipPath id="clip0">
<rect width="51.899" height="47.3681" fill="white" transform="translate(33.3445 0.777344)"/>
</clipPath>
</defs>
</svg>
